<?xml version="1.0" standalone="no"?>
<!DOCTYPE svg PUBLIC "-//W3C//DTD SVG 20010904//EN"
 "http://www.w3.org/TR/2001/REC-SVG-20010904/DTD/svg10.dtd">
<svg version="1.0" xmlns="http://www.w3.org/2000/svg"
 width="900.000000pt" height="900.000000pt" viewBox="0 0 900.000000 900.000000"
 preserveAspectRatio="xMidYMid meet">
<metadata>
Created by potrace 1.14, written by Peter Selinger 2001-2017
</metadata>
<g transform="translate(0.000000,900.000000) scale(0.100000,-0.100000)"
fill="#000000" stroke="none">
<path d="M4240 7923 c-729 -69 -1312 -297 -1870 -729 -143 -110 -427 -392
-544 -539 -404 -508 -639 -1059 -731 -1720 -22 -153 -30 -528 -16 -696 69
-828 413 -1572 996 -2154 623 -624 1433 -973 2320 -1001 574 -18 1148 111
1660 375 641 330 1151 838 1481 1476 419 808 496 1743 218 2625 -72 231 -213
534 -349 751 -576 921 -1535 1511 -2615 1609 -105 9 -465 12 -550 3z m688
-1590 c56 -157 126 -354 150 -423 45 -128 332 -942 597 -1695 391 -1108 455
-1292 455 -1299 0 -3 -176 -5 -392 -4 l-391 3 -47 150 c-26 83 -76 241 -110
353 l-63 202 -636 0 -636 0 -119 -355 -119 -355 -379 0 -380 0 5 23 c3 12 46
137 97 277 50 140 118 329 150 420 32 91 113 318 180 505 67 187 148 414 180
505 32 91 113 318 180 505 67 187 148 414 180 505 32 91 102 286 154 434 53
147 96 270 96 272 0 2 189 4 419 4 l419 0 10 -27z"/>
<path d="M4485 5568 c-41 -133 -425 -1317 -432 -1335 -4 -10 86 -13 431 -13
240 0 436 3 436 6 0 4 -43 145 -96 313 -143 454 -248 791 -289 924 -20 64 -39
117 -41 117 -3 0 -6 -6 -9 -12z"/>
</g>
</svg>
